<?xml version="1.0" encoding="UTF-8"?>
<svg xmlns="http://www.w3.org/2000/svg" width="85mm" height="55mm" viewBox="0 0 850 550">
  <rect width="850" height="550" fill="#050505"/>
  
    <g transform="translate(70 75) scale(3.4)"><path stroke="#E8C36A" d="M1 1.5h7m1 0h1m1 0h1m1 0h1m2 0h3m2 0h1m1 0h7M1 2.5h1m5 0h1m1 0h1m1 0h2m1 0h1m1 0h1m1 0h2m1 0h1m1 0h1m5 0h1M1 3.5h1m1 0h3m1 0h1m2 0h1m2 0h2m3 0h2m3 0h1m1 0h3m1 0h1M1 4.5h1m1 0h3m1 0h1m1 0h2m1 0h1m1 0h1m2 0h1m1 0h2m2 0h1m1 0h3m1 0h1M1 5.5h1m1 0h3m1 0h1m1 0h2m3 0h6m3 0h1m1 0h3m1 0h1M1 6.5h1m5 0h1m1 0h1m1 0h3m1 0h1m2 0h4m1 0h1m5 0h1M1 7.5h7m1 0h1m1 0h1m1 0h1m1 0h1m1 0h1m1 0h1m1 0h1m1 0h7M10 8.5h4m2 0h1m4 0h1M4 9.5h1m2 0h1m6 0h5m5 0h3m1 0h2M1 10.5h6m1 0h1m1 0h1m2 0h2m1 0h1m1 0h1m1 0h4m5 0h1M1 11.5h1m1 0h3m1 0h2m1 0h5m6 0h1m1 0h2m1 0h3M4 12.5h3m2 0h4m3 0h2m1 0h1m2 0h4m1 0h2M4 13.5h2m1 0h4m1 0h2m5 0h2m2 0h2M1 14.5h2m2 0h1m2 0h1m1 0h1m3 0h1m1 0h1m1 0h1m1 0h3m1 0h1m1 0h1M1 15.5h3m1 0h3m2 0h3m1 0h1m4 0h1m2 0h1m5 0h2M2 16.5h4m3 0h1m1 0h5m2 0h2m4 0h1m3 0h1M2 17.5h1m2 0h1m1 0h1m1 0h2m2 0h1m2 0h3m9 0h2M4 18.5h2m2 0h1m4 0h2m1 0h1m1 0h5m1 0h1m2 0h3M1 19.5h1m2 0h2m1 0h1m5 0h5m1 0h1m2 0h1m1 0h1m2 0h3M3 20.5h2m3 0h1m1 0h2m3 0h1m8 0h1M1 21.5h1m1 0h3m1 0h1m1 0h1m3 0h1m1 0h1m1 0h3m1 0h5m1 0h1m1 0h1M9 22.5h6m2 0h1m1 0h3m3 0h1m2 0h2M1 23.5h7m2 0h1m3 0h1m1 0h2m3 0h1m1 0h1m1 0h4M1 24.5h1m5 0h1m5 0h2m2 0h1m1 0h1m1 0h1m3 0h1m1 0h2M1 25.5h1m1 0h3m1 0h1m3 0h1m1 0h1m1 0h5m1 0h6M1 26.5h1m1 0h3m1 0h1m1 0h3m5 0h1m1 0h5m1 0h3m1 0h1M1 27.5h1m1 0h3m1 0h1m2 0h4m1 0h4m1 0h2m3 0h1m1 0h1m1 0h1M1 28.5h1m5 0h1m2 0h1m1 0h2m2 0h2m1 0h2m2 0h2m3 0h1M1 29.5h7m3 0h3m1 0h4m4 0h1m1 0h2m1 0h1"/></g>
    <g transform="translate(520 180) scale(0.7)">
  <g fill="#E8C36A">
    <path d="M0 72H28V36L0 72Z"/>
    <path d="M36 72H72V18L36 72Z"/>
    <path d="M80 72H124V0L80 72Z"/>
  </g>
</g>
    <text x="520" y="310" fill="#F4F4F4" font-family="Arial, Helvetica, sans-serif" font-size="28" font-weight="700" letter-spacing="2">JTLH LTD</text>
    <text x="520" y="350" fill="#A3A3A3" font-family="Arial, Helvetica, sans-serif" font-size="16">jtlhltd.com</text>
  
</svg>
